<svg width="845" height="410" viewBox="0 0 845 410" fill="none" xmlns="http://www.w3.org/2000/svg">
<g filter="url(#filter0_d_242_485)">
<g clip-path="url(#clip0_242_485)">
<path d="M272.676 329.806H234.499V396.947H141.939V329.806H4V261.222L148.062 50.0537H234.499V259.778H272.676V329.806ZM141.939 259.778V219.349C141.939 211.769 142.299 201.661 142.66 188.666C143.38 175.671 143.74 169.174 144.1 168.452H141.579C136.177 180.725 130.054 191.915 123.211 202.744L85.0349 259.778H141.939Z" fill="#FFDD4D"/>
<path d="M547.115 224.041C547.115 285.406 536.671 330.528 516.502 359.044C495.973 387.561 464.64 402 422.142 402C380.724 402 349.751 387.2 328.501 357.24C307.612 327.279 297.168 282.88 297.168 224.041C297.168 162.315 307.252 117.194 328.141 88.3165C348.67 59.4388 380.004 45 422.502 45C463.56 45 494.893 60.1608 515.782 90.1213C536.671 120.082 547.115 164.481 547.115 224.041ZM390.088 224.041C390.088 263.387 392.609 290.46 397.291 304.899C402.333 319.699 410.257 326.918 421.782 326.918C433.307 326.918 441.59 319.338 446.632 304.177C451.314 289.016 453.835 262.304 453.835 224.041C453.835 185.418 451.314 158.706 446.632 143.184C441.59 127.662 433.667 120.082 422.142 120.082C410.617 120.082 402.333 127.662 397.651 142.462C392.609 157.262 390.088 184.335 390.088 224.041Z" fill="#FFDD4D"/>
<path d="M841 329.806H802.823V396.947H710.264V329.806H572.324V261.222L716.386 50.0537H802.823V259.778H841V329.806ZM710.624 259.778V219.349C710.624 211.769 710.984 201.661 711.344 188.666C712.064 175.671 712.424 169.174 712.785 168.452H710.264C704.861 180.725 698.739 191.915 691.896 202.744L653.359 260.139H710.624V259.778Z" fill="#FFDD4D"/>
</g>
<g clip-path="url(#clip1_242_485)">
<path d="M574.269 130.547C574.269 130.547 572.575 77.0804 521.123 74.448C462.896 71.4646 466.517 132.068 466.517 132.068C466.517 132.068 482.636 123.996 516.86 124.99C556.048 125.984 574.269 130.547 574.269 130.547Z" fill="white"/>
<path d="M563.291 25.4854C560.663 14.3123 547.405 25.0174 524.453 18.5242C505.356 13.0839 499.107 -1.24809 492.683 3.72422C486.258 8.69653 495.194 25.0174 522.643 34.3186C543.084 41.2798 566.328 38.5304 563.291 25.4854Z" fill="#2C3543"/>
<path d="M283.834 29.1707C285.469 17.8221 299.661 27.3573 321.912 18.8166C340.484 11.7384 345.449 -3.06158 352.282 1.32575C359.115 5.77158 351.581 22.7944 325.066 34.4355C305.326 43.1517 281.907 42.3912 283.834 29.1707Z" fill="#2C3543"/>
<path d="M271.746 128.558C271.746 128.558 274.199 75.0915 325.593 73.1611C383.82 70.9381 379.44 131.483 379.44 131.483C379.44 131.483 363.438 123.235 329.214 123.703C290.026 124.23 271.746 128.558 271.746 128.558Z" fill="white"/>
<path d="M524.219 73.98C553.42 84.6266 554.997 118.263 554.88 126.979C567.203 129.26 573.101 132.302 573.101 132.302C573.101 132.302 577.248 75.2669 524.219 73.98Z" fill="white"/>
<path d="M330.5 73.1025C359.701 83.7491 361.278 117.385 361.161 126.102C373.484 128.383 379.383 131.425 379.383 131.425C379.383 131.425 383.588 74.3895 330.5 73.1025Z" fill="white"/>
<path d="M353.803 118.555C353.803 102.936 341.188 90.3008 325.595 90.3008C310.002 90.3008 297.387 102.936 297.387 118.555C297.387 120.837 297.679 123.118 298.204 125.224C306.497 124.58 316.776 123.996 329.216 123.82C338.502 123.703 346.386 124.229 353.044 124.99C353.57 123.001 353.803 120.837 353.803 118.555Z" fill="#2C3543"/>
<path d="M319.169 116.917C324.201 116.917 328.28 112.832 328.28 107.792C328.28 102.752 324.201 98.666 319.169 98.666C314.138 98.666 310.059 102.752 310.059 107.792C310.059 112.832 314.138 116.917 319.169 116.917Z" fill="white"/>
<path d="M492.332 119.491C492.566 103.872 505.356 91.4123 520.891 91.6463C536.484 91.8803 548.924 104.691 548.69 120.252C548.632 122.533 548.34 124.815 547.814 126.92C539.521 126.16 529.242 125.458 516.861 125.107C507.575 124.873 499.691 125.283 493.033 125.984C492.566 123.879 492.332 121.714 492.332 119.491Z" fill="#2C3543"/>
<path d="M536.22 109.279C536.287 104.24 532.262 100.1 527.231 100.033C522.2 99.9662 518.067 103.997 518 109.037C517.933 114.076 521.958 118.216 526.989 118.283C532.02 118.35 536.153 114.319 536.22 109.279Z" fill="white"/>
<path d="M515.574 201.447C514.64 201.447 513.705 200.979 513.18 200.16C513.121 200.101 507.398 191.794 494.842 183.663C483.336 176.176 463.48 167.284 434.512 167.284C434.395 167.284 434.278 167.284 434.162 167.284C389.834 167.401 356.837 199.458 356.487 199.809C355.319 200.92 353.508 200.92 352.34 199.809C351.23 198.639 351.23 196.825 352.34 195.655C352.69 195.304 361.159 186.998 375.467 178.574C388.725 170.794 409.633 161.493 434.103 161.434C434.22 161.434 434.337 161.434 434.512 161.434C465.115 161.434 486.081 170.969 498.287 178.925C511.72 187.7 517.735 196.533 518.027 196.884C518.903 198.229 518.611 200.043 517.268 200.92C516.684 201.271 516.1 201.447 515.574 201.447Z" fill="#2C3543"/>
<path d="M344.282 185.945C339.669 193.374 338.851 202.967 342.18 211.04C342.472 211.742 343.173 212.269 343.99 212.035C344.691 211.859 345.334 210.982 344.983 210.221C341.946 202.792 342.589 194.193 346.794 187.407C347.787 185.828 345.275 184.307 344.282 185.945Z" fill="#2C3543"/>
<path d="M518.904 188.226C524.453 193.608 526.555 202.09 524.277 209.461C523.693 211.274 526.555 212.035 527.081 210.221C529.709 201.856 527.256 192.262 520.948 186.12C519.605 184.833 517.503 186.939 518.904 188.226Z" fill="#2C3543"/>
<path d="M369.393 115.806C368.634 115.104 367.875 114.46 366.94 114.109C365.48 113.583 363.904 113.934 362.385 113.7C358.998 113.056 357.012 109.547 354.034 107.733C349.712 105.101 343.813 106.68 340.251 110.307C338.09 112.53 336.104 115.689 333.009 115.747C331.549 115.806 330.147 115.104 328.687 114.87C324.949 114.226 321.445 116.566 317.766 117.444C314.262 118.321 310.407 117.853 307.195 116.215C303.282 114.168 299.544 110.366 295.339 111.594C291.31 112.822 289.791 118.087 285.82 119.491C283.016 120.544 279.629 119.257 276.943 120.544C274.198 121.89 273.205 125.224 272.562 128.266L325.65 123.82L377.394 129.494C377.453 123.996 373.365 119.491 369.393 115.806Z" fill="#2C3543"/>
<path d="M379.44 133.589C379.09 133.589 378.739 133.531 378.447 133.355C378.272 133.297 362.387 125.341 329.273 125.809C290.844 126.335 272.447 130.547 272.214 130.606C271.571 130.781 270.87 130.606 270.345 130.138C269.819 129.728 269.527 129.026 269.585 128.383C269.585 127.798 270.286 114.402 277.47 100.538C284.128 87.6099 297.911 71.991 325.535 70.9381C342.939 70.2946 356.722 75.0329 366.358 85.0945C383.47 102.819 381.659 130.43 381.601 131.6C381.543 132.302 381.134 132.946 380.491 133.355C380.199 133.531 379.79 133.589 379.44 133.589ZM332.134 121.48C356.663 121.48 371.381 125.926 377.338 128.207C377.279 120.72 375.819 101.123 363.204 88.0779C354.386 78.9523 341.771 74.6819 325.652 75.2669C305.152 76.0274 290.201 85.2115 281.266 102.527C276.419 111.945 274.725 121.305 274.141 125.809C280.74 124.581 298.553 121.89 329.156 121.48C330.207 121.48 331.2 121.48 332.134 121.48Z" fill="#2C3543"/>
<path d="M478.433 118.087C482.404 117.561 486.317 119.784 490.289 119.257C493.909 118.731 496.771 116.04 500.042 114.343C503.721 112.413 508.043 111.711 512.131 112.413C517.913 113.408 523.344 117.034 529.184 116.215C534.382 115.455 538.295 111.302 542.967 109.02C549.1 106.037 556.75 106.388 562.59 109.956C568.431 113.525 572.227 120.193 572.285 127.037C572.285 127.564 572.285 128.09 571.935 128.5C571.526 129.026 570.767 129.085 570.124 129.085C567.73 129.085 565.394 128.675 562.999 128.266C542.617 124.99 521.826 124.581 501.151 125.341C495.662 125.517 490.113 125.809 484.624 126.686C479.017 127.564 473.877 130.313 468.504 131.308C467.804 125.868 473.06 118.789 478.433 118.087Z" fill="#2C3543"/>
<path d="M466.577 134.174C466.227 134.174 465.818 134.057 465.468 133.882C464.825 133.531 464.417 132.887 464.417 132.127C464.358 130.957 462.957 103.346 480.244 85.8549C490.055 75.9688 503.838 71.3475 521.3 72.2834C548.866 73.6874 562.415 89.4818 568.957 102.527C575.965 116.508 576.432 129.904 576.49 130.489C576.49 131.191 576.198 131.834 575.673 132.244C575.147 132.653 574.446 132.829 573.804 132.653C573.629 132.595 555.232 128.149 516.862 127.096C483.748 126.16 467.746 133.882 467.57 133.999C467.22 134.116 466.869 134.174 466.577 134.174ZM517.095 76.4368C502.845 76.4368 491.457 80.5901 483.28 88.8383C470.549 101.708 468.797 121.246 468.622 128.792C474.871 126.511 490.581 122.007 516.862 122.767C547.465 123.586 565.277 126.511 571.818 127.798C571.293 123.235 569.716 113.758 564.927 104.282C556.166 86.9079 541.391 77.6067 520.95 76.5538C519.723 76.4953 518.38 76.4368 517.095 76.4368Z" fill="#2C3543"/>
</g>
</g>
<defs>
<filter id="filter0_d_242_485" x="0" y="0.565186" width="845" height="409.435" filterUnits="userSpaceOnUse" color-interpolation-filters="sRGB">
<feFlood flood-opacity="0" result="BackgroundImageFix"/>
<feColorMatrix in="SourceAlpha" type="matrix" values="0 0 0 0 0 0 0 0 0 0 0 0 0 0 0 0 0 0 127 0" result="hardAlpha"/>
<feOffset dy="4"/>
<feGaussianBlur stdDeviation="2"/>
<feComposite in2="hardAlpha" operator="out"/>
<feColorMatrix type="matrix" values="0 0 0 0 0 0 0 0 0 0 0 0 0 0 0 0 0 0 0.25 0"/>
<feBlend mode="normal" in2="BackgroundImageFix" result="effect1_dropShadow_242_485"/>
<feBlend mode="normal" in="SourceGraphic" in2="effect1_dropShadow_242_485" result="shape"/>
</filter>
<clipPath id="clip0_242_485">
<rect width="837" height="357" fill="white" transform="translate(4 45)"/>
</clipPath>
<clipPath id="clip1_242_485">
<rect width="306.845" height="211.528" fill="white" transform="translate(269.578 0.565186)"/>
</clipPath>
</defs>
</svg>
