<svg width="36" height="36" viewBox="0 0 36 36" fill="none" xmlns="http://www.w3.org/2000/svg">
<g clip-path="url(#clip0_257_568)">
<path d="M36 17.9576C36 27.8928 27.9422 35.9576 18 35.9576C8.06484 35.9576 0 27.8998 0 17.9576C0 8.59199 7.14375 0.913867 16.2703 0.0419922C16.0312 0.64668 15.9187 1.30762 15.9539 1.98965C16.0805 4.62637 18.3164 6.66543 20.9602 6.53887C21.0727 6.53184 21.1781 6.5248 21.2836 6.51074C21.1008 7.08027 21.0094 7.69199 21.0445 8.32481C21.1781 11.1443 23.5688 13.324 26.3953 13.1904C28.1391 13.1061 29.6367 12.1568 30.4945 10.7787C31.1344 11.9037 32.3719 12.642 33.7641 12.5717C34.2352 12.5506 34.6781 12.4381 35.0789 12.2553C35.6766 14.0412 36 15.9607 36 17.9576Z" fill="#F7B658"/>
<path d="M25.6859 27.7525C25.6859 29.1447 24.5609 30.2697 23.1687 30.2697C21.7836 30.2697 20.6586 29.1447 20.6586 27.7525C20.6586 26.3674 21.7836 25.2424 23.1687 25.2424C24.5609 25.2424 25.6859 26.3674 25.6859 27.7525ZM19.5898 13.008C19.5898 13.6057 19.1047 14.0838 18.5141 14.0838C17.9234 14.0838 17.4383 13.5986 17.4383 13.008C17.4383 12.4174 17.9234 11.9322 18.5141 11.9322C19.1047 11.9322 19.5898 12.4174 19.5898 13.008ZM21.1719 19.1111C21.1719 19.99 20.4617 20.7002 19.5828 20.7002C18.7109 20.7002 18.0008 19.99 18.0008 19.1111C18.0008 18.2393 18.7109 17.5291 19.5828 17.5291C20.4617 17.5291 21.1719 18.2393 21.1719 19.1111ZM8.63516 23.6041C8.63516 24.483 7.925 25.1932 7.04609 25.1932C6.17422 25.1932 5.46406 24.483 5.46406 23.6041C5.46406 22.7322 6.17422 22.0221 7.04609 22.0221C7.925 22.015 8.63516 22.7252 8.63516 23.6041ZM31.107 19.8213C31.107 20.8268 30.2914 21.6424 29.2859 21.6424C28.2805 21.6424 27.4648 20.8268 27.4648 19.8213C27.4648 18.8158 28.2805 18.0002 29.2859 18.0002C30.2914 18.0002 31.107 18.8158 31.107 19.8213ZM7.17266 16.7979C7.17266 17.4307 6.66641 17.9369 6.03359 17.9369C5.40781 17.9369 4.89453 17.4307 4.89453 16.7979C4.89453 16.1721 5.40078 15.6588 6.03359 15.6588C6.66641 15.6588 7.17266 16.1721 7.17266 16.7979ZM14 9.3377C14 10.6174 12.9594 11.658 11.6797 11.658C10.4 11.658 9.36641 10.6174 9.36641 9.3377C9.36641 8.05801 10.407 7.02441 11.6797 7.02441C12.9594 7.02441 14 8.06504 14 9.3377ZM15.5469 27.8369C15.5469 28.4697 15.0406 28.976 14.4078 28.976C13.782 28.976 13.2688 28.4697 13.2688 27.8369C13.2688 27.2111 13.775 26.6979 14.4078 26.6979C15.0336 26.6979 15.5469 27.2111 15.5469 27.8369Z" fill="#593412"/>
</g>
<defs>
<clipPath id="clip0_257_568">
<rect width="36" height="36" fill="white"/>
</clipPath>
</defs>
</svg>
