<svg width="30" height="30" viewBox="0 0 30 30" fill="none" xmlns="http://www.w3.org/2000/svg">
<g filter="url(#filter0_d_269_1621)">
<path d="M10.3631 9.31564C10.2353 9.18793 10.1339 9.03629 10.0647 8.86937C9.99547 8.70244 9.95986 8.52352 9.95986 8.34282C9.95986 8.16213 9.99547 7.9832 10.0647 7.81628C10.1339 7.64936 10.2353 7.49771 10.3631 7.37001L14.7391 2.99751C14.9312 2.8052 15.1759 2.67414 15.4425 2.62089C15.709 2.56763 15.9854 2.59457 16.2366 2.69831C16.4879 2.80204 16.7027 2.97791 16.8541 3.2037C17.0054 3.42949 17.0864 3.69507 17.0869 3.96689C17.0865 4.10304 17.0668 4.23845 17.0284 4.36907C17.0284 4.40345 17.0044 4.43782 16.9906 4.47564C16.9211 4.64556 16.8182 4.79985 16.6881 4.92939L12.3088 9.31564C12.181 9.44348 12.0294 9.5449 11.8625 9.61409C11.6956 9.68329 11.5166 9.7189 11.3359 9.7189C11.1552 9.7189 10.9763 9.68329 10.8094 9.61409C10.6425 9.5449 10.4908 9.44348 10.3631 9.31564ZM14.8353 12.1344L6.75031 20.2091C6.65418 20.3046 6.53193 20.3697 6.39895 20.3959C6.26597 20.4222 6.12819 20.4086 6.00292 20.3568C5.87765 20.305 5.77049 20.2174 5.6949 20.1048C5.61932 19.9923 5.57869 19.8599 5.57812 19.7244C5.58431 19.5445 5.66084 19.3741 5.79125 19.25L13.8728 11.1581C14.2451 11.4284 14.5703 11.7583 14.8353 12.1344ZM16.2 13.2034L16.1519 13.255C15.9103 12.4498 15.473 11.717 14.8792 11.122C14.2854 10.527 13.5534 10.0882 12.7488 9.84501L12.7969 9.80032L17.1694 5.42782C17.2038 5.39345 17.2381 5.35564 17.2691 5.31782C17.5006 6.13023 17.9356 6.87011 18.5329 7.46744C19.1302 8.06476 19.8701 8.49976 20.6825 8.73126L20.5725 8.83095L16.2 13.2034ZM23.4084 10.2884C23.4081 10.4693 23.3721 10.6483 23.3025 10.8153C23.2329 10.9822 23.1311 11.1338 23.0028 11.2613L18.6303 15.6372C18.5026 15.765 18.351 15.8665 18.184 15.9357C18.0171 16.0049 17.8382 16.0405 17.6575 16.0405C17.4768 16.0405 17.2979 16.0049 17.131 15.9357C16.964 15.8665 16.8124 15.765 16.6847 15.6372C16.557 15.5094 16.4558 15.3577 16.3868 15.1908C16.3178 15.0239 16.2824 14.845 16.2825 14.6644C16.2825 14.5184 16.3057 14.3734 16.3512 14.2347C16.3589 14.2078 16.3681 14.1814 16.3787 14.1556C16.4457 13.9805 16.5501 13.8221 16.6847 13.6916L21.0606 9.31564C21.1944 9.18255 21.3549 9.07943 21.5316 9.01313C21.5614 8.99976 21.5925 8.9894 21.6244 8.9822C21.7597 8.93795 21.9014 8.91589 22.0438 8.91689C22.4084 8.91689 22.7582 9.06175 23.016 9.31961C23.2739 9.57748 23.4188 9.92721 23.4188 10.2919L23.4084 10.2884ZM23.9378 18.9063H15.6878C15.4143 18.9063 15.152 19.0149 14.9586 19.2083C14.7652 19.4017 14.6566 19.664 14.6566 19.9375C14.6566 20.211 14.7652 20.4733 14.9586 20.6667C15.152 20.8601 15.4143 20.9688 15.6878 20.9688H23.9378C24.2113 20.9688 24.4736 20.8601 24.667 20.6667C24.8604 20.4733 24.9691 20.211 24.9691 19.9375C24.9691 19.664 24.8604 19.4017 24.667 19.2083C24.4736 19.0149 24.2113 18.9063 23.9378 18.9063Z" fill="white"/>
</g>
<defs>
<filter id="filter0_d_269_1621" x="0" y="0" width="30" height="30" filterUnits="userSpaceOnUse" color-interpolation-filters="sRGB">
<feFlood flood-opacity="0" result="BackgroundImageFix"/>
<feColorMatrix in="SourceAlpha" type="matrix" values="0 0 0 0 0 0 0 0 0 0 0 0 0 0 0 0 0 0 127 0" result="hardAlpha"/>
<feOffset dy="4"/>
<feGaussianBlur stdDeviation="2"/>
<feComposite in2="hardAlpha" operator="out"/>
<feColorMatrix type="matrix" values="0 0 0 0 0 0 0 0 0 0 0 0 0 0 0 0 0 0 0.25 0"/>
<feBlend mode="normal" in2="BackgroundImageFix" result="effect1_dropShadow_269_1621"/>
<feBlend mode="normal" in="SourceGraphic" in2="effect1_dropShadow_269_1621" result="shape"/>
</filter>
</defs>
</svg>
