<svg width="22" height="22" viewBox="0 0 22 22" fill="none" xmlns="http://www.w3.org/2000/svg">
<path d="M6.36312 9.31564C6.23528 9.18793 6.13386 9.03629 6.06467 8.86937C5.99547 8.70244 5.95986 8.52352 5.95986 8.34282C5.95986 8.16213 5.99547 7.9832 6.06467 7.81628C6.13386 7.64936 6.23528 7.49771 6.36312 7.37001L10.7391 2.99751C10.9312 2.8052 11.1759 2.67414 11.4425 2.62089C11.709 2.56763 11.9854 2.59457 12.2366 2.69831C12.4879 2.80204 12.7027 2.97791 12.8541 3.2037C13.0054 3.42949 13.0864 3.69507 13.0869 3.96689C13.0865 4.10304 13.0668 4.23845 13.0284 4.36907C13.0284 4.40345 13.0044 4.43782 12.9906 4.47564C12.9211 4.64556 12.8182 4.79985 12.6881 4.92939L8.30875 9.31564C8.18105 9.44348 8.0294 9.5449 7.86248 9.61409C7.69556 9.68329 7.51663 9.7189 7.33594 9.7189C7.15524 9.7189 6.97632 9.68329 6.80939 9.61409C6.64247 9.5449 6.49083 9.44348 6.36312 9.31564ZM10.8353 12.1344L2.75031 20.2091C2.65418 20.3046 2.53193 20.3697 2.39895 20.3959C2.26597 20.4222 2.12819 20.4086 2.00292 20.3568C1.87765 20.305 1.77049 20.2174 1.6949 20.1048C1.61932 19.9923 1.57869 19.8599 1.57812 19.7244C1.58431 19.5445 1.66084 19.3741 1.79125 19.25L9.87281 11.1581C10.2451 11.4284 10.5703 11.7583 10.8353 12.1344ZM12.2 13.2034L12.1519 13.255C11.9103 12.4498 11.473 11.717 10.8792 11.122C10.2854 10.527 9.55344 10.0882 8.74875 9.84501L8.79688 9.80032L13.1694 5.42782C13.2038 5.39345 13.2381 5.35564 13.2691 5.31782C13.5006 6.13023 13.9356 6.87011 14.5329 7.46744C15.1302 8.06476 15.8701 8.49976 16.6825 8.73126L16.5725 8.83095L12.2 13.2034ZM19.4084 10.2884C19.4081 10.4693 19.3721 10.6483 19.3025 10.8153C19.2329 10.9822 19.1311 11.1338 19.0028 11.2613L14.6303 15.6372C14.5026 15.765 14.351 15.8665 14.184 15.9357C14.0171 16.0049 13.8382 16.0405 13.6575 16.0405C13.4768 16.0405 13.2979 16.0049 13.131 15.9357C12.964 15.8665 12.8124 15.765 12.6847 15.6372C12.557 15.5094 12.4558 15.3577 12.3868 15.1908C12.3178 15.0239 12.2824 14.845 12.2825 14.6644C12.2825 14.5184 12.3057 14.3734 12.3512 14.2347C12.3589 14.2078 12.3681 14.1814 12.3787 14.1556C12.4457 13.9805 12.5501 13.8221 12.6847 13.6916L17.0606 9.31564C17.1944 9.18255 17.3549 9.07943 17.5316 9.01313C17.5614 8.99976 17.5925 8.9894 17.6244 8.9822C17.7597 8.93795 17.9014 8.91589 18.0438 8.91689C18.4084 8.91689 18.7582 9.06175 19.016 9.31961C19.2739 9.57748 19.4188 9.92721 19.4188 10.2919L19.4084 10.2884ZM19.9378 18.9063H11.6878C11.4143 18.9063 11.152 19.0149 10.9586 19.2083C10.7652 19.4017 10.6566 19.664 10.6566 19.9375C10.6566 20.211 10.7652 20.4733 10.9586 20.6667C11.152 20.8601 11.4143 20.9688 11.6878 20.9688H19.9378C20.2113 20.9688 20.4736 20.8601 20.667 20.6667C20.8604 20.4733 20.9691 20.211 20.9691 19.9375C20.9691 19.664 20.8604 19.4017 20.667 19.2083C20.4736 19.0149 20.2113 18.9063 19.9378 18.9063Z" fill="white"/>
</svg>
