<svg width="18" height="19" viewBox="0 0 18 19" fill="none" xmlns="http://www.w3.org/2000/svg">
<path d="M7.5 13.4585C7.5 13.221 7.425 13.0627 7.275 12.9043L3.525 8.946C3.225 8.62933 2.775 8.62933 2.475 8.946C2.175 9.26266 2.175 9.73766 2.475 10.0543L6.225 14.0127C6.525 14.3293 6.975 14.3293 7.275 14.0127C7.425 13.8543 7.5 13.696 7.5 13.4585Z" fill="#1F2732"/>
<path d="M7.5 5.54167C7.5 5.30417 7.425 5.14583 7.275 4.9875C6.975 4.67083 6.525 4.67083 6.225 4.9875L2.475 8.94583C2.175 9.2625 2.175 9.7375 2.475 10.0542C2.775 10.3708 3.225 10.3708 3.525 10.0542L7.275 6.09583C7.425 5.9375 7.5 5.77917 7.5 5.54167Z" fill="#1F2732"/>
<path d="M15.75 9.50016C15.75 9.02516 15.45 8.7085 15 8.7085H3C2.55 8.7085 2.25 9.02516 2.25 9.50016C2.25 9.97516 2.55 10.2918 3 10.2918H15C15.45 10.2918 15.75 9.97516 15.75 9.50016Z" fill="#1F2732"/>
</svg>
