<svg width="18" height="19" viewBox="0 0 18 19" fill="none" xmlns="http://www.w3.org/2000/svg">
<path d="M10.5 5.5415C10.5 5.779 10.575 5.93734 10.725 6.09567L14.475 10.054C14.775 10.3707 15.225 10.3707 15.525 10.054C15.825 9.73734 15.825 9.26234 15.525 8.94567L11.775 4.98734C11.475 4.67067 11.025 4.67067 10.725 4.98734C10.575 5.14567 10.5 5.304 10.5 5.5415Z" fill="#1F2732"/>
<path d="M10.5 13.4583C10.5 13.6958 10.575 13.8542 10.725 14.0125C11.025 14.3292 11.475 14.3292 11.775 14.0125L15.525 10.0542C15.825 9.7375 15.825 9.2625 15.525 8.94583C15.225 8.62917 14.775 8.62917 14.475 8.94583L10.725 12.9042C10.575 13.0625 10.5 13.2208 10.5 13.4583Z" fill="#1F2732"/>
<path d="M2.25 9.49984C2.25 9.97484 2.55 10.2915 3 10.2915H15C15.45 10.2915 15.75 9.97484 15.75 9.49984C15.75 9.02484 15.45 8.70817 15 8.70817H3C2.55 8.70817 2.25 9.02484 2.25 9.49984Z" fill="#1F2732"/>
</svg>
