<svg width="30" height="30" viewBox="0 0 30 30" fill="none" xmlns="http://www.w3.org/2000/svg">
<path d="M15 27.1875C8.26898 27.1875 2.8125 21.731 2.8125 15C2.8125 8.26904 8.26898 2.8125 15 2.8125C21.731 2.8125 27.1875 8.26904 27.1875 15C27.1875 21.731 21.731 27.1875 15 27.1875ZM13.7374 4.62897C11.425 4.90588 9.28553 5.941 7.6132 7.61326C5.64012 9.58635 4.55355 12.2096 4.55355 15C4.55355 17.5119 5.43457 19.8881 7.04971 21.7769C7.09131 21.2779 7.19402 20.7428 7.16772 20.3604C7.07162 18.9662 6.93404 18.0936 7.75014 16.9173C8.06807 16.4592 8.14617 15.8024 8.30092 15.2721C8.45227 14.7533 9.05689 14.4812 9.47391 14.1616C10.3153 13.5165 11.1202 12.7668 12.0123 12.199C12.6011 11.8243 12.9689 11.6379 12.7965 10.9194C12.6578 10.3416 12.619 9.98561 12.3201 9.4708C12.2289 9.31371 12.6645 8.30373 12.8094 8.15877C13.2487 7.71949 13.6847 7.31648 14.1636 6.92098C14.906 6.30756 14.0914 5.51051 13.7374 4.62897ZM22.3867 7.61326C20.8848 6.11133 19.0059 5.12385 16.9635 4.73742C17.253 5.4532 17.7684 6.08918 18.2464 6.45785C18.6623 6.77871 19.1831 7.39588 19.4003 7.88473C19.6174 8.37293 19.9049 8.79615 20.1959 9.2451C20.6098 9.88371 19.1752 10.8468 18.7103 11.0487C17.6642 11.5028 16.8767 12.1157 15.947 12.7699C15.2846 13.2359 13.9397 12.5265 13.1919 12.8529C12.1676 13.3001 11.3238 14.0773 10.4334 14.7478C9.51469 15.4397 9.5591 16.2463 9.5591 17.2671C10.2787 17.2406 11.3025 17.4663 11.7803 16.8875C11.931 16.7049 12.4494 15.889 12.7964 16.1789C13.0799 16.4158 12.5863 17.3654 12.491 17.5886C12.1978 18.275 13.1592 18.5428 13.6513 19.0082C14.2935 19.6155 15.6711 20.5679 15.5622 21.0032C15.4533 21.4385 14.1838 22.6717 13.4382 22.4793C13.3265 22.4505 12.3427 21.4189 12.1526 21.2571C12.1577 21.5938 12.1627 21.9304 12.1679 22.2671C12.1711 22.4797 11.7713 22.6979 11.7899 22.835C11.8368 23.1815 12.8013 23.8104 13.0413 24.0864C12.8732 24.1914 12.2995 24.6841 12.1259 24.6118C11.7056 24.4366 11.2308 24.3159 10.8105 24.1408C10.8105 24.2866 10.7928 24.4235 10.7717 24.5588C11.6182 24.9332 12.5111 25.1924 13.4266 25.3294L14.2518 24.9977L14.8345 24.3063L15.416 23.7067L15.9243 23.5429L16.7316 24.3043L16.5234 24.8479V25.3365C18.1201 25.1046 19.628 24.5089 20.9486 23.5904C20.7123 23.5693 20.4527 23.5345 20.1598 23.4973C20.0388 23.5687 19.8836 23.6012 19.7517 23.651C20.1343 22.8282 20.5335 22.0168 20.939 21.2049C21.3722 20.3377 22.3331 19.4074 22.5019 18.492C22.7007 17.4129 22.5628 16.4327 22.6716 15.1632C22.7763 13.9406 24.0499 12.5515 24.0499 12.5515C24.0499 12.5515 24.638 12.3512 25.1271 12.421C24.6712 10.6173 23.7365 8.96315 22.3867 7.61326Z" fill="#1F2732"/>
</svg>
